<?xml version="1.0" encoding="UTF-8" standalone="no"?><!DOCTYPE svg PUBLIC "-//W3C//DTD SVG 1.1//EN" "http://www.w3.org/Graphics/SVG/1.1/DTD/svg11.dtd"><svg width="100%" height="100%" viewBox="0 0 100 100" version="1.1" xmlns="http://www.w3.org/2000/svg" xmlns:xlink="http://www.w3.org/1999/xlink" xml:space="preserve" xmlns:serif="http://www.serif.com/" style="fill-rule:evenodd;clip-rule:evenodd;stroke-linejoin:round;stroke-miterlimit:2;"><g><path d="M55.304,24.438l3.463,1.262c1.366,0.5 2.441,1.554 2.946,2.888l1.279,3.416c0.608,1.629 2.162,2.709 3.9,2.709c1.737,-0.001 3.291,-1.075 3.904,-2.705l1.279,-3.408c0.508,-1.342 1.583,-2.4 2.95,-2.896l3.463,-1.262c1.645,-0.6 2.737,-2.167 2.737,-3.913c0,-1.746 -1.096,-3.312 -2.737,-3.912l-3.463,-1.263c-1.367,-0.5 -2.442,-1.554 -2.946,-2.892l-1.283,-3.416c-0.609,-1.629 -2.167,-2.704 -3.904,-2.704c-1.738,-0 -3.292,1.079 -3.9,2.708l-1.275,3.404c-0.509,1.342 -1.584,2.4 -2.95,2.896l-3.463,1.262c-1.646,0.6 -2.737,2.167 -2.737,3.913c-0,1.746 1.095,3.312 2.737,3.912Z" style="fill:#dadada;fill-rule:nonzero;"/><path d="M93.275,50.013c-1.675,-0.7 -3.625,-0.234 -4.796,1.162c-3.867,4.608 -10.446,6.754 -20.7,6.754c-15.891,0 -25.746,-4.291 -25.746,-25.658c0,-9.988 2.217,-16.746 6.775,-20.654c1.375,-1.184 1.83,-3.121 1.121,-4.792c-0.708,-1.667 -2.379,-2.692 -4.229,-2.517c-23.679,2.242 -41.533,21.846 -41.533,45.596c-0,25.259 20.6,45.809 45.925,45.809c23.833,-0 43.491,-17.825 45.721,-41.463c0.175,-1.817 -0.855,-3.533 -2.538,-4.237Zm-43.179,37.362c-20.729,0 -37.592,-16.813 -37.592,-37.475c0,-15.946 9.842,-29.604 24.083,-35.008c-1.933,4.725 -2.883,10.487 -2.883,17.375c0,30.466 19.45,33.991 34.079,33.991c5.067,0 11.505,-0.391 17.405,-2.804c-5.442,14.15 -19.117,23.917 -35.088,23.917l-0.004,0.004Z" style="fill:#dadada;fill-rule:nonzero;stroke:#dadada;stroke-width:4.17px;"/></g><g><circle cx="77.042" cy="47.288" r="4.167" style="fill:#dadada;"/><circle cx="58.292" cy="44.858" r="4.167" style="fill:#dadada;"/></g></svg>