<?xml version="1.0" encoding="UTF-8" standalone="no"?><!DOCTYPE svg PUBLIC "-//W3C//DTD SVG 1.1//EN" "http://www.w3.org/Graphics/SVG/1.1/DTD/svg11.dtd"><svg width="100%" height="100%" viewBox="0 0 2134 2134" version="1.1" xmlns="http://www.w3.org/2000/svg" xmlns:xlink="http://www.w3.org/1999/xlink" xml:space="preserve" xmlns:serif="http://www.serif.com/" style="fill-rule:evenodd;clip-rule:evenodd;stroke-linejoin:round;stroke-miterlimit:2;"><path d="M2044.44,977.778l-362.666,-0c-6.925,-48.974 -19.729,-96.935 -38.134,-142.845l313.512,-181.689c28.762,-15.478 46.766,-45.611 46.766,-78.274c-0,-48.763 -40.126,-88.889 -88.889,-88.889c-16.52,0 -32.718,4.605 -46.766,13.297l-313.778,181.955c-29.996,-37.892 -64.268,-72.193 -102.133,-102.222l181.866,-313.867c6.967,-12.946 10.615,-27.421 10.615,-42.122c-0,-48.763 -40.126,-88.889 -88.889,-88.889c-30.759,-0 -59.41,15.965 -75.592,42.123l-181.956,313.333c-45.903,-18.425 -93.866,-31.229 -142.844,-38.133l-0,-362.667c-0,-48.763 -40.126,-88.889 -88.889,-88.889c-48.763,-0 -88.889,40.126 -88.889,88.889l-0,362.667c-48.978,6.904 -96.942,19.708 -142.845,38.133l-181.689,-313.511c-16.182,-26.158 -44.833,-42.123 -75.592,-42.123c-48.763,-0 -88.889,40.126 -88.889,88.889c0,14.702 3.648,29.176 10.615,42.123l181.866,314.044c-37.865,30.029 -72.137,64.33 -102.133,102.222l-313.778,-181.955c-14.048,-8.692 -30.246,-13.297 -46.766,-13.297c-48.763,0 -88.889,40.126 -88.889,88.889c0,32.663 18.004,62.796 46.766,78.274l313.245,181.689c-18.405,45.91 -31.208,93.871 -38.133,142.845l-362.667,-0c-48.763,-0 -88.889,40.126 -88.889,88.889c-0,48.763 40.126,88.889 88.889,88.889l362.667,-0c6.925,48.974 19.728,96.935 38.133,142.844l-313.511,181.689c-28.763,15.478 -46.766,45.611 -46.766,78.274c-0,48.763 40.126,88.889 88.889,88.889c16.52,0 32.717,-4.605 46.766,-13.296l313.777,-181.956c29.996,37.892 64.268,72.193 102.134,102.222l-181.6,313.867c-6.967,12.946 -10.615,27.421 -10.615,42.123c0,48.763 40.126,88.889 88.889,88.889c30.759,-0 59.41,-15.966 75.592,-42.123l181.689,-313.511c45.908,18.446 93.867,31.309 142.845,38.311l-0,362.666c-0,48.763 40.126,88.889 88.889,88.889c48.763,0 88.889,-40.126 88.889,-88.889l-0,-362.666c48.97,-6.945 96.928,-19.748 142.844,-38.134l181.689,313.512c16.183,26.157 44.833,42.122 75.592,42.122c48.763,0 88.889,-40.125 88.889,-88.888c-0,-14.702 -3.647,-29.177 -10.614,-42.123l-181.867,-313.867c37.866,-30.029 72.137,-64.33 102.133,-102.222l313.778,181.955c14.049,8.692 30.246,13.297 46.766,13.297c48.763,0 88.889,-40.126 88.889,-88.889c-0,-32.663 -18.004,-62.796 -46.766,-78.274l-313.511,-181.689c18.509,-45.955 31.403,-93.977 38.4,-143.022l362.666,-0c48.763,-0 88.889,-40.126 88.889,-88.889c0,-48.763 -40.126,-88.889 -88.889,-88.889Zm-977.777,533.333c-587.378,-18.667 -587.2,-870.311 -0,-888.889c587.377,18.667 587.2,870.311 -0,888.889Z" style="fill:#dadada;fill-rule:nonzero;stroke:#dadada;stroke-width:4.17px;"/></svg>